<svg xmlns="http://www.w3.org/2000/svg" viewBox="0 0 1739.32 1739.32"><defs><style>.cls-1{fill:#fff;}</style></defs><title>Asset 1</title><g id="Layer_2" data-name="Layer 2"><g id="Layer_1-2" data-name="Layer 1"><path class="cls-1" d="M573.19,1262.42V475h264V590.45H667V788.9H823.77V904.4H667v242.54H837.17v115.48h-264m-371.84,0V475H352.76a207.33,207.33,0,0,1,29.49,2.11,79.58,79.58,0,0,1,28.8,7.34,78.19,78.19,0,0,1,25.46,16.81q12.75,11.53,22.79,31.49a204,204,0,0,1,20.1,67.19,556.39,556.39,0,0,1,4.69,74.55,475.24,475.24,0,0,1-2.69,50.4,222.76,222.76,0,0,1-8.71,47.25A136.09,136.09,0,0,1,454.6,811a89.16,89.16,0,0,1-30.82,28.34v2.11q39.54,8.39,56.28,57.74,16.76,48.3,16.76,124.95,0,24.15-1.34,48.29a442.84,442.84,0,0,1-5.37,48.3q-15.41,74.55-44.21,108.14t-79.06,33.6ZM312.56,793.1a325.23,325.23,0,0,0,36.18-2.1q19.44-3.15,30.83-25.2,6.69-14.71,8-35.7,2-21,2-49.34,0-44.1-9.39-66.15T338.7,590.45H295.14V793.1Zm2.68,353.84h28.82a48.89,48.89,0,0,0,27.46-8.41q9.39-6.3,14.74-18.89a108,108,0,0,0,8.71-27.3,171.61,171.61,0,0,0,4-31.5q1.35-16.8,1.35-31.5a480.4,480.4,0,0,0-2.69-54.6q-2.67-23.12-10-37.81t-20.76-21q-13.41-7.35-35.52-7.36H295.14v238.35Zm600.31-123.48c46.35,70.13,152.69,132.67,172.74,52.3,14.49-58.11-6.8-82.3-29.72-98.65C896.93,861.82,905.29,737.41,905.29,652.63S957.94,481.86,1038,475.92s129.16,66.51,129.16,66.51V695C1099,596.37,995.58,602.31,993.6,668.47c-1.63,54.52,6.15,60.62,74.54,119.59l2.78,2.4c6.63,5.71,13.8,11.91,21.56,18.68,22.31,21.52,54.48,59.41,73.6,112.68,9.38,32.65,15,74.23,13.49,126.84-5.68,199-80.19,213.76-141.86,213.76-81.45-3.55-122.16-76.12-122.16-76.12ZM1225.09,475H1538V590.45h-109.2v672H1335v-672H1225.09ZM869.66,39.36c-458.57,0-830.3,371.73-830.3,830.3S411.09,1700,869.66,1700,1700,1328.22,1700,869.66,1328.22,39.36,869.66,39.36Zm0-39.36c480.3,0,869.66,389.35,869.66,869.66S1350,1739.32,869.66,1739.32,0,1350,0,869.66,389.35,0,869.66,0Z"/></g></g></svg>